<?xml version="1.0" standalone="no"?>
<!DOCTYPE svg PUBLIC "-//W3C//DTD SVG 20010904//EN"
 "http://www.w3.org/TR/2001/REC-SVG-20010904/DTD/svg10.dtd">
<svg version="1.0" xmlns="http://www.w3.org/2000/svg"
 width="585.000000pt" height="602.000000pt" viewBox="0 0 585.000000 602.000000"
 preserveAspectRatio="xMidYMid meet">

<g transform="translate(0.000000,602.000000) scale(0.100000,-0.100000)"
fill="#000000" stroke="none">
<path d="M2894 4350 c-78 -16 -191 -59 -252 -94 -33 -20 -70 -36 -81 -36 -12
0 -49 14 -83 31 -143 72 -322 109 -435 89 -249 -43 -409 -260 -382 -515 4 -33
9 -97 12 -141 l6 -82 -31 -13 c-38 -16 -74 -89 -84 -171 -8 -69 17 -128 76
-182 l39 -35 -6 -88 c-5 -85 -5 -90 21 -120 39 -47 105 -68 206 -68 47 1 110
7 140 14 64 16 173 65 190 86 17 20 30 19 94 -9 55 -24 96 -25 96 -1 0 13
-164 82 -263 110 -42 12 -62 14 -70 6 -11 -11 3 -18 81 -42 24 -7 41 -17 39
-23 -6 -17 -64 -53 -125 -77 -80 -31 -229 -33 -286 -4 -54 27 -79 64 -78 114
1 68 9 81 48 81 39 0 74 15 74 31 0 7 -17 9 -50 4 -48 -7 -53 -5 -96 31 -76
62 -112 144 -63 144 16 0 19 4 14 18 -4 9 -10 37 -12 62 -4 36 -1 51 17 73 30
38 38 34 32 -21 -5 -54 20 -127 40 -119 7 2 12 13 10 23 -15 91 -14 120 7 146
31 39 54 27 46 -24 -9 -51 9 -77 73 -107 91 -43 102 -113 30 -188 -43 -44 -26
-64 25 -29 l36 24 6 -36 c6 -43 -7 -97 -31 -123 -10 -11 -14 -22 -11 -25 11
-12 37 5 55 36 20 32 32 30 32 -6 0 -31 17 -39 29 -15 12 21 1 63 -23 91 -15
17 -27 80 -30 155 -3 70 -24 106 -77 135 -75 41 -81 48 -74 92 8 46 -4 64 -48
74 -46 9 -57 22 -57 65 0 49 16 83 46 100 36 19 20 24 -17 5 -18 -9 -34 -14
-36 -12 -2 2 -7 35 -10 72 -10 121 34 244 122 342 74 82 149 112 281 112 112
0 212 -29 384 -110 137 -65 243 -100 300 -99 14 0 -23 16 -82 36 -60 20 -108
40 -108 44 0 11 71 57 125 82 170 78 410 76 569 -5 222 -113 364 -333 380
-592 6 -98 -9 -221 -34 -289 -11 -28 -17 -53 -14 -56 16 -16 62 111 75 208 6
42 13 82 15 89 5 17 110 -40 151 -83 30 -32 53 -87 53 -131 0 -44 -33 -111
-78 -159 -64 -68 -98 -92 -205 -147 -51 -26 -85 -48 -77 -48 31 0 221 102 278
149 l59 50 38 -26 c38 -26 65 -74 65 -116 0 -13 -13 -43 -28 -68 -37 -57 -112
-93 -260 -122 -87 -17 -145 -21 -312 -21 -189 0 -210 2 -262 23 -32 12 -58 26
-58 31 0 5 26 14 58 20 132 28 234 73 300 133 34 31 26 43 -10 15 -36 -27
-119 -71 -157 -83 -17 -5 -4 11 41 53 65 62 119 147 133 210 10 49 -11 39 -24
-12 -43 -170 -319 -336 -561 -336 -62 0 -80 -4 -93 -18 -10 -10 -15 -21 -11
-24 7 -8 159 1 217 12 43 9 53 7 90 -14 23 -13 69 -30 102 -38 77 -17 399 -17
517 0 347 50 478 247 264 397 -18 13 -17 15 3 70 24 63 25 84 10 140 -15 53
-86 121 -170 162 l-66 33 -13 77 c-27 171 -121 341 -242 441 -18 15 -38 32
-45 38 -25 24 -140 83 -203 104 -73 24 -254 36 -326 20z"/>
<path d="M3206 4097 c8 -32 21 -127 28 -213 16 -184 19 -189 107 -197 33 -3
66 -11 74 -17 24 -20 1 -47 -46 -55 -46 -8 -46 -11 -13 -97 17 -44 17 -49 2
-64 -23 -23 -50 -10 -73 33 -12 23 -29 39 -42 41 -23 3 -28 -11 -35 -93 -2
-22 -8 -30 -23 -30 -18 0 -20 8 -23 67 -4 84 -23 102 -68 63 -32 -27 -54 -31
-72 -13 -21 21 -13 45 22 75 48 40 59 67 51 120 -11 78 -44 190 -67 230 -24
43 -87 113 -101 113 -6 0 2 -12 17 -27 38 -37 82 -136 106 -234 28 -120 27
-134 -20 -181 -51 -52 -57 -73 -33 -107 27 -35 63 -38 100 -7 17 14 33 23 37
19 3 -3 6 -34 6 -68 0 -65 11 -85 46 -85 33 0 54 37 54 95 l1 50 16 -30 c25
-48 44 -65 75 -65 15 0 37 9 48 20 22 22 20 50 -6 102 -20 38 -18 43 18 53 19
6 39 22 48 37 14 26 13 29 -7 49 -16 16 -38 24 -78 27 -75 6 -84 21 -96 159
-11 128 -34 243 -54 269 -12 16 -12 10 1 -39z"/>
<path d="M2311 3903 c-14 -50 -56 -85 -106 -86 -40 -1 -42 -4 -17 -23 55 -42
157 10 155 79 -1 19 -6 43 -11 53 -9 15 -12 12 -21 -23z"/>
<path d="M2595 3788 c23 -107 24 -101 -58 -180 -55 -53 -77 -82 -82 -108 -24
-114 -103 -189 -204 -192 l-56 -2 49 -3 c101 -8 184 53 226 164 27 73 44 96
91 127 73 49 96 116 65 191 -19 46 -41 47 -31 3z"/>
<path d="M2048 3701 c-18 -45 -67 -81 -110 -81 -35 0 -36 -13 -3 -28 79 -36
167 32 144 111 -12 42 -14 42 -31 -2z"/>
<path d="M2116 3279 c-46 -34 -59 -36 -86 -9 -11 11 -20 16 -20 12 0 -14 35
-42 52 -42 8 0 33 13 54 28 22 16 46 31 54 35 13 5 13 5 0 6 -8 0 -33 -14 -54
-30z"/>
<path d="M3550 2812 c0 -4 18 -6 40 -4 22 2 40 6 40 8 0 2 -18 4 -40 4 -22 0
-40 -3 -40 -8z"/>
<path d="M2150 2156 c0 -111 3 -136 14 -136 8 0 16 6 19 13 4 10 7 10 18 0 40
-39 129 15 129 77 0 75 -63 125 -120 95 l-29 -15 -3 47 c-2 26 -9 48 -15 51
-10 3 -13 -28 -13 -132z m134 2 c46 -66 -28 -144 -86 -91 -20 18 -24 64 -8 94
15 28 74 26 94 -3z"/>
<path d="M3630 2265 c-18 -34 -3 -45 20 -15 23 30 25 40 7 40 -8 0 -20 -11
-27 -25z"/>
<path d="M4120 2241 l0 -50 -35 15 c-31 13 -39 13 -65 -1 -35 -18 -50 -43 -50
-85 0 -76 61 -121 121 -89 15 7 24 7 35 -1 22 -19 25 2 22 135 -2 84 -7 120
-15 123 -9 2 -13 -11 -13 -47z m-16 -83 c46 -66 -28 -144 -86 -91 -22 20 -23
70 -1 95 23 25 68 23 87 -4z"/>
<path d="M2055 2271 c-8 -15 3 -31 21 -31 9 0 14 7 12 17 -4 20 -24 28 -33 14z"/>
<path d="M2867 2274 c-4 -4 -7 -29 -7 -56 l0 -48 -64 0 -65 0 -3 47 c-2 36 -7
49 -21 51 -16 3 -17 -6 -15 -120 3 -101 6 -123 18 -123 11 0 16 14 18 53 l3
52 64 0 64 0 3 -52 c2 -29 8 -53 13 -53 6 0 11 48 13 119 2 110 -4 147 -21
130z"/>
<path d="M1552 2148 c2 -86 7 -123 16 -126 9 -3 12 19 12 87 0 50 3 91 8 91 4
0 22 -25 40 -55 19 -31 38 -52 45 -49 7 3 26 28 44 57 l32 52 1 -80 c0 -82 9
-113 29 -101 7 5 11 50 11 127 0 144 -9 151 -72 54 -24 -35 -45 -65 -48 -65
-3 0 -24 30 -48 65 -64 98 -73 90 -70 -57z"/>
<path d="M1893 2205 c-37 -16 -53 -42 -53 -84 0 -63 37 -101 98 -101 36 0 78
28 63 43 -8 8 -14 8 -23 -1 -18 -18 -73 -14 -91 6 -31 34 -21 42 52 42 39 0
73 4 76 10 7 11 -17 61 -37 77 -24 19 -53 22 -85 8z m75 -37 c22 -22 13 -28
-43 -28 -53 0 -55 1 -45 20 12 23 68 28 88 8z"/>
<path d="M2993 2205 c-37 -16 -53 -42 -53 -84 0 -63 37 -101 98 -101 36 0 78
28 63 43 -8 8 -14 8 -23 -1 -18 -18 -73 -14 -91 6 -31 34 -21 42 52 42 39 0
73 4 76 10 7 11 -17 61 -37 77 -24 19 -53 22 -85 8z m75 -37 c22 -22 13 -28
-43 -28 -53 0 -55 1 -45 20 12 23 68 28 88 8z"/>
<path d="M3227 2200 c-22 -18 -27 -19 -27 -6 0 9 -7 16 -15 16 -13 0 -15 -15
-13 -92 3 -107 20 -122 28 -25 6 74 22 101 58 92 19 -5 23 -2 20 11 -5 26 -22
27 -51 4z"/>
<path d="M3385 2204 c-19 -10 -31 -11 -33 -5 -2 6 -10 11 -18 11 -12 0 -14
-17 -12 -92 3 -107 21 -126 26 -28 4 74 13 90 53 90 37 0 49 -24 49 -100 0
-45 3 -61 13 -58 8 3 13 30 15 76 3 65 1 74 -22 97 -29 29 -32 30 -71 9z"/>
<path d="M3578 2204 c-34 -18 -48 -43 -48 -84 0 -76 61 -121 121 -89 14 7 24
7 33 0 21 -18 26 -2 26 91 0 72 -3 88 -15 88 -8 0 -15 -4 -15 -9 0 -6 -16 -3
-35 5 -41 17 -34 17 -67 -2z m86 -46 c46 -66 -28 -144 -86 -91 -22 20 -23 70
-1 95 23 25 68 23 87 -4z"/>
<path d="M3835 2204 c-19 -10 -31 -11 -33 -5 -2 6 -10 11 -18 11 -12 0 -14
-17 -12 -92 3 -107 21 -126 26 -28 4 74 13 90 53 90 37 0 49 -24 49 -100 0
-45 3 -61 13 -58 8 3 13 30 15 76 3 65 1 74 -22 97 -29 29 -32 30 -71 9z"/>
<path d="M4253 2205 c-37 -16 -53 -42 -53 -84 0 -63 37 -101 98 -101 36 0 78
28 63 43 -8 8 -14 8 -23 -1 -18 -18 -73 -14 -91 6 -31 34 -21 42 52 42 39 0
73 4 76 10 7 11 -17 61 -37 77 -24 19 -53 22 -85 8z m75 -37 c22 -22 13 -28
-43 -28 -53 0 -55 1 -45 20 12 23 68 28 88 8z"/>
<path d="M2057 2204 c-10 -11 -8 -157 3 -174 19 -31 31 6 28 90 -3 76 -12 102
-31 84z"/>
<path d="M2380 2132 c0 -64 4 -82 18 -95 21 -19 54 -22 83 -7 16 9 19 7 19 -8
0 -31 -26 -45 -70 -39 -29 4 -40 1 -40 -8 0 -33 79 -33 117 -1 27 24 28 27 28
128 0 85 -3 103 -15 103 -11 0 -16 -15 -18 -65 -3 -71 -13 -90 -46 -90 -36 0
-46 20 -46 92 0 54 -3 68 -15 68 -12 0 -15 -15 -15 -78z"/>
<path d="M4410 2195 c0 -11 12 -15 45 -15 25 0 45 -2 45 -5 0 -3 -22 -35 -50
-72 -27 -36 -47 -69 -44 -74 3 -5 36 -9 75 -9 55 0 69 3 69 15 0 11 -12 15
-45 15 -25 0 -45 4 -45 8 0 5 20 35 45 68 24 32 45 65 45 72 0 8 -21 12 -70
12 -56 0 -70 -3 -70 -15z"/>
<path d="M3612 1594 c-2 -92 1 -113 13 -118 17 -6 20 5 5 20 -5 5 -11 54 -13
109 l-3 100 -2 -111z"/>
<path d="M2276 1681 c-4 -5 -2 -12 3 -15 5 -4 12 -2 15 3 4 5 2 12 -3 15 -5 4
-12 2 -15 -3z"/>
<path d="M1876 1579 c-21 -55 -35 -103 -32 -106 3 -4 11 8 17 25 10 31 13 32
64 32 51 0 54 -1 64 -32 6 -17 14 -28 18 -25 9 9 -70 207 -82 207 -6 0 -28
-45 -49 -101z m90 -26 c-2 -2 -22 -3 -44 -1 l-40 3 21 55 20 55 24 -54 c13
-29 22 -56 19 -58z"/>
<path d="M2702 1673 c-23 -9 -33 -40 -21 -66 9 -21 8 -28 -10 -46 -26 -26 -27
-45 -1 -71 24 -24 58 -26 89 -3 22 15 25 15 36 0 19 -26 29 -20 12 6 -10 15
-12 29 -6 38 5 8 8 21 8 29 0 9 -5 6 -11 -7 -14 -29 -19 -29 -47 1 l-23 24 21
21 c25 25 27 44 5 65 -16 16 -29 19 -52 9z m46 -39 c4 -29 -23 -51 -43 -34
-16 13 -20 42 -8 54 14 14 48 1 51 -20z m-3 -94 c25 -26 27 -33 15 -41 -8 -5
-31 -8 -50 -7 -28 2 -36 8 -38 26 -4 25 13 52 32 52 7 0 25 -14 41 -30z"/>
<path d="M2933 1673 c-9 -3 -13 -33 -13 -99 0 -92 0 -94 26 -100 35 -9 100 12
119 39 17 25 20 89 4 119 -18 34 -96 58 -136 41z m108 -32 c19 -15 24 -29 24
-66 0 -58 -27 -85 -86 -85 l-39 0 0 85 0 85 39 0 c23 0 48 -8 62 -19z"/>
<path d="M2168 1664 c-5 -4 -8 -42 -8 -85 0 -82 12 -109 50 -109 31 0 33 18 3
22 -27 3 -28 6 -31 61 l-3 57 31 0 c16 0 30 5 30 10 0 6 -13 10 -29 10 -22 0
-30 5 -33 21 -2 11 -6 17 -10 13z"/>
<path d="M2481 1584 c-1 -104 8 -122 56 -108 l28 8 -30 4 c-38 5 -45 16 -45
75 0 46 1 47 30 47 17 0 30 5 30 10 0 6 -13 10 -29 10 -23 0 -31 5 -34 23 -2
12 -5 -19 -6 -69z"/>
<path d="M2063 1623 c-9 -3 -12 -28 -11 -81 l2 -77 5 70 c6 67 7 70 34 73 15
2 27 8 27 13 0 9 -36 11 -57 2z"/>
<path d="M2283 1550 c0 -47 2 -66 4 -42 2 23 2 61 0 85 -2 23 -4 4 -4 -43z"/>
<path d="M2358 1619 c-30 -17 -21 -47 23 -74 48 -31 46 -48 -7 -56 -31 -4 -35
-7 -20 -14 29 -13 71 7 74 35 2 20 -5 29 -35 45 -48 25 -50 49 -5 53 18 2 30
8 27 13 -8 12 -35 11 -57 -2z"/>
<path d="M3156 1609 c-20 -16 -26 -29 -26 -59 0 -22 7 -45 16 -54 20 -21 59
-30 81 -20 14 6 10 9 -17 12 -42 4 -60 18 -60 43 0 16 8 19 50 19 46 0 50 2
50 24 0 24 -32 56 -56 56 -6 0 -23 -9 -38 -21z m72 -11 c21 -21 13 -28 -33
-28 -25 0 -45 4 -45 8 0 15 24 32 45 32 12 0 26 -5 33 -12z"/>
<path d="M3284 1605 c16 -62 49 -136 59 -132 15 4 59 125 55 146 -2 9 -14 -17
-27 -56 -13 -40 -27 -71 -31 -68 -4 2 -16 34 -26 70 -10 36 -23 65 -27 65 -5
0 -6 -11 -3 -25z"/>
<path d="M3459 1611 c-18 -14 -24 -29 -24 -61 0 -32 6 -47 24 -61 25 -21 57
-24 81 -9 11 7 6 10 -22 10 -38 0 -68 20 -68 46 0 10 14 14 55 14 48 0 55 2
55 20 0 25 -34 60 -59 60 -10 0 -29 -9 -42 -19z m79 -23 c3 -15 -4 -18 -42
-18 -25 0 -46 4 -46 8 0 34 82 42 88 10z"/>
<path d="M3699 1611 c-18 -14 -24 -29 -24 -61 0 -46 29 -80 67 -80 30 0 68 45
68 80 0 35 -38 80 -68 80 -11 0 -30 -9 -43 -19z m79 -13 c16 -16 16 -80 0 -96
-19 -19 -66 -15 -78 7 -24 47 -4 101 38 101 16 0 33 -5 40 -12z"/>
<path d="M3873 1624 c-10 -4 -13 -35 -11 -112 1 -59 3 -90 5 -69 4 37 5 37 37
32 48 -9 81 20 81 74 0 23 -7 47 -16 56 -16 17 -76 28 -96 19z m79 -31 c34
-31 16 -103 -27 -103 -46 0 -55 9 -55 59 0 26 3 51 7 54 12 13 56 7 75 -10z"/>
<path d="M4049 1611 c-18 -14 -24 -29 -24 -61 0 -32 6 -47 24 -61 25 -21 57
-24 81 -9 11 7 6 10 -22 10 -38 0 -68 20 -68 46 0 10 14 14 55 14 48 0 55 2
55 20 0 25 -34 60 -59 60 -10 0 -29 -9 -42 -19z m79 -23 c3 -15 -4 -18 -42
-18 -25 0 -46 4 -46 8 0 34 82 42 88 10z"/>
<path d="M4213 1623 c-9 -3 -12 -28 -11 -81 l2 -77 5 70 c6 67 7 70 34 73 15
2 27 8 27 13 0 9 -36 11 -57 2z"/>
</g>
</svg>
